<svg width="299" height="183" viewBox="0 0 299 183" fill="none" xmlns="http://www.w3.org/2000/svg">
<path d="M146.279 106.998V180.661" stroke="#385867" stroke-width="4.99957" stroke-miterlimit="10"/>
<path d="M157.108 178.667H135.45V182.655H157.108V178.667Z" fill="#1F3C88"/>
<path d="M207.578 104.848H84.9797V109.147H207.578V104.848Z" fill="#8296A0"/>
<path d="M43.8809 155.797C43.8809 155.797 49.2048 163.925 59.3998 165.12L56.1041 154.188L43.8809 155.797Z" fill="#102048"/>
<path d="M57.2824 157.845L48.8335 151.821L45.2002 161.856L52.6431 167.807L57.2824 157.845Z" fill="#F9B384"/>
<path d="M37.1321 168.7L52.9208 182.343C53.3451 182.71 53.9891 182.303 53.8346 181.766L50.7923 171.217L53.375 166.479L45.2637 161.783C42.5956 163.416 40.1675 165.408 38.0513 167.703L37.1321 168.7Z" fill="#3748AC"/>
<path d="M50.7355 109.29C73.6201 110.889 80.2102 109.551 83.2701 118.678C87.1556 130.271 59.4013 165.119 59.4013 165.119C59.4013 165.119 54.4271 157.862 43.8823 155.795L58.2869 125.404L50.7355 109.29Z" fill="#1F3C88"/>
<path d="M21.7622 132.727V180.061" stroke="#385867" stroke-width="4.99957" stroke-miterlimit="10"/>
<path d="M28.6101 105.057C22.0185 105.057 18.8177 86.9292 10.2726 89.5056C-12.8615 96.4814 4.12841 157.571 50.6731 130.163L28.6101 105.057Z" fill="#8296A0"/>
<path d="M10.9558 182.587C10.9558 179.799 15.7944 177.539 21.7622 177.539C27.7301 177.539 32.5687 179.799 32.5687 182.587H10.9558Z" fill="#1F3C88"/>
<path d="M95.489 79.1367C98.4879 80.7 100.54 83.0208 101.113 86.5282L95.3223 86.722L95.489 79.1367Z" fill="#6F3428"/>
<path d="M98.8391 76.6319C98.8391 76.6319 99.6471 75.3955 102.176 75.2488C104.533 75.1116 106.519 75.2421 108.52 74.3689C108.812 74.2411 109.107 74.1241 109.416 74.0447L110.473 73.7729L110.557 75.7237C110.557 75.7237 107.67 77.3799 105.95 77.0893C105.95 77.0893 106.679 78.2436 112.921 78.0795C112.921 78.0795 115.067 77.2211 116.206 77.466C116.839 77.6019 117.274 78.2046 117.274 78.2046L112.499 80.5509L100.722 80.3855L98.8391 76.6319Z" fill="#E28B6D"/>
<path d="M115.236 73.95L114.386 79.6234L112.499 80.5517L107.962 80.4885L112.657 78.2188C112.657 78.2175 113.557 73.6997 115.236 73.95Z" fill="#E28B6D"/>
<path d="M111.142 73.0825L112.357 78.3779L110.63 80.5251L106.466 81.4413L110.146 78.0577C110.144 78.0591 109.572 73.7283 111.142 73.0825Z" fill="#F9B384"/>
<path d="M93.1016 81.0025L98.8403 76.6314L105.035 78.7826L107.654 78.2808C107.654 78.2808 106.533 74.7304 108.105 73.9043C108.105 73.9043 109.461 75.7407 109.788 78.3938C109.846 78.8687 107.434 81.2043 107.434 81.2043C106.816 81.6025 101.786 81.807 101.786 81.807L96.4936 88.0428L93.1016 81.0025Z" fill="#F9B384"/>
<path d="M75.1248 91.907C75.2956 92.0523 95.4891 79.1367 95.4891 79.1367C96.1344 82.7961 98.3212 84.9555 101.113 86.5282L89.0426 97.5145L75.1248 91.907Z" fill="#AE5140"/>
<path d="M73.9956 167.732C73.9956 167.732 83.9385 171.233 92.8727 164.651L81.3883 159.185L73.9956 167.732Z" fill="#102048"/>
<path d="M85.671 161.288L75.3132 162.25L79.2137 172.187L88.7647 171.824L85.671 161.288Z" fill="#F9B384"/>
<path d="M77.8091 182.604H98.5937C99.1563 182.604 99.3732 181.878 98.9014 181.574L89.6269 175.6L88.766 171.786L79.215 172.087C78.2836 175.055 77.8104 178.146 77.8104 181.254V182.604H77.8091Z" fill="#3748AC"/>
<path d="M64.5055 58.5068L64.0025 63.4861L63.166 71.7104L52.1494 69.1595C52.1494 69.1595 54.7931 61.838 55.8722 58.9898C56.1149 58.3333 56.2789 57.9189 56.3128 57.8799L57.7987 57.9916L64.5055 58.5068Z" fill="#F9B384"/>
<path d="M64.5055 58.5069L63.9212 64.2798C60.8383 64.0431 57.7283 62.6129 55.8994 58.9145L57.7988 57.9902L64.5055 58.5069Z" fill="#E28B6D"/>
<path d="M64.9283 60.9798C58.1483 62.7127 53.4087 56.5629 53.4087 56.5629L52.945 52.5981L52.8827 52.2389L51.8374 45.8928L56.7302 39.7256L67.9217 42.489C67.9271 42.4944 67.9217 42.4944 67.9217 42.4944C68.4247 43.6769 68.8599 44.8945 69.2151 46.1107C69.3954 46.7336 69.5594 47.3606 69.695 47.9781C71.0358 54.0108 70.1315 59.6506 64.9283 60.9798Z" fill="#F9B384"/>
<path d="M69.2789 46.4536C65.205 38.9182 60.6457 40.9537 57.7878 43.2355C53.76 46.4536 54.3578 52.4137 54.3578 52.4137L52.9452 52.5993L50.9455 52.8576L49.1546 53.5075C44.5438 50.9956 46.0473 43.5167 48.5675 40.7748C52.3866 36.6149 59.0934 35.0058 63.7652 37.854C64.2966 38.1742 64.7711 38.5321 65.2063 38.9195C66.4441 40.0066 67.3131 41.2914 67.9232 42.4915V42.4969C68.7312 44.0669 69.0864 45.485 69.2165 46.1133C69.2626 46.3299 69.2789 46.4536 69.2789 46.4536Z" fill="#102048"/>
<path d="M69.2792 46.4539C66.8334 40.7091 61.4254 40.4966 58.714 42.9492C55.223 46.1081 59.8799 50.5788 54.3581 52.4126L52.883 52.239L50.1933 51.9188L49.0125 44.3053L53.3453 39.7243L58.5717 37.8569L65.2039 38.9171C66.4416 40.0042 67.3106 41.289 67.9207 42.4891V42.4944C68.7287 44.0645 69.0839 45.4825 69.2141 46.1108C69.2629 46.3301 69.2792 46.4539 69.2792 46.4539Z" fill="#102048"/>
<path d="M51.138 38.1444C50.6933 36.6551 49.8012 35.1886 48.3669 34.5684C47.807 34.3276 47.1603 34.2294 46.5855 34.4325C46.0581 34.6195 46.0432 35.3985 45.5619 35.6084C45.2704 35.7349 45.1335 35.56 44.861 35.4644C44.4475 35.3191 44.0028 35.2976 43.588 35.455C43.2504 35.5828 42.9494 35.8317 42.7556 36.1358C42.62 36.3497 42.5997 36.6416 42.4343 36.8367C42.2187 37.0923 41.9814 37.0654 41.6886 37.1623C41.0636 37.3695 40.5688 37.8753 40.402 38.5131C40.322 38.8211 40.3193 39.1373 40.3817 39.4481C40.4644 39.8557 40.8752 40.18 40.7925 40.6159C40.6583 41.3168 39.7065 41.5173 39.5222 42.2801C39.4205 42.6972 39.4964 43.1492 39.7201 43.5152C39.937 43.869 40.3383 44.0977 40.3871 44.543C40.4332 44.9655 40.1255 45.3328 39.9397 45.7148C39.8299 45.9409 39.7594 46.2086 39.8597 46.4387C39.9533 46.6566 40.1783 46.7911 40.4047 46.8665C41.0677 47.0831 41.4758 47.1652 41.9259 47.7356C42.296 48.2038 42.578 48.754 43.146 49.0177C44.0218 49.424 45.1159 49.2303 46.0025 48.9424C47.1359 48.5751 48.1242 47.8688 49.0448 47.1181C49.6345 46.6364 50.212 46.1238 50.6323 45.4902C51.3251 44.4448 51.7481 42.7496 51.4322 41.5079C51.3115 41.0329 50.9888 40.784 51.0797 40.2688C51.2207 39.475 51.382 38.9624 51.138 38.1444Z" fill="#102048"/>
<path d="M58.6447 84.7589L66.3275 92.8607C65.4572 94.0662 64.4065 95.6309 63.345 97.5144C61.5364 100.704 59.6845 104.797 58.543 109.551L24.0291 108.397C26.8476 99.6011 35.9052 72.1729 52.6388 66.1914C60.2322 63.4724 66.2313 68.1422 70.5262 74.0578L56.363 82.3493L58.6447 84.7589Z" fill="#FC6B58"/>
<path d="M91.9209 99.4802L107.452 96.5742L115.227 101.342C115.929 101.771 115.623 102.845 114.799 102.845L105.492 102.546L95.9189 104.399L91.9209 99.4802Z" fill="#F9B384"/>
<path d="M99.6824 95.4803C100.691 99.4828 100.168 101.841 98.5707 104.847L79.4184 102.237C76.2934 101.81 73.4084 100.334 71.2474 98.0526L66.3275 92.8595L56.3616 82.3467L70.5248 74.0552C75.6942 81.1749 80.5558 88.3242 80.5558 88.3242L99.6824 95.4803Z" fill="#FC6B58"/>
<path d="M59.8173 129.955C59.8173 129.955 36.7429 132.5 29.9277 127.229C23.6968 122.408 23.1477 112.512 24.0276 108.398C24.0276 108.398 37.0317 103.297 64.9473 110.899C71.6663 112.729 77.077 117.67 79.543 124.136C83.8814 135.506 90.6085 153.955 92.8712 164.652C92.8712 164.652 78.0789 163.679 73.9941 167.733L59.8173 129.955Z" fill="#708CD5"/>
<path d="M66.3288 92.8597C65.4585 94.0651 64.4078 95.6298 63.3463 97.5133C61.7018 93.5942 59.5218 88.1334 58.646 84.7578L66.3288 92.8597Z" fill="#AE5140"/>
<path d="M54.5341 53.5049C54.3266 52.1985 53.4156 51.0603 52.1317 50.7052C50.5266 50.2612 48.8238 50.9958 48.6014 52.7474C48.2625 55.4234 50.6445 58.1572 54.9611 56.1943L54.5341 53.5049Z" fill="#F9B384"/>
<path d="M63.6221 50.3348C63.7508 50.8462 63.5502 51.336 63.1721 51.4302C62.7939 51.5244 62.3818 51.1867 62.2531 50.6766C62.1243 50.1653 62.3249 49.6754 62.7031 49.5812C63.0812 49.487 63.4919 49.8235 63.6221 50.3348Z" fill="#102048"/>
<path d="M67.4245 50.0544C67.7965 49.9964 68.0336 49.5423 67.9541 49.0401C67.8746 48.5379 67.5086 48.1778 67.1367 48.2358C66.7647 48.2938 66.5276 48.7479 66.6071 49.2502C66.6865 49.7524 67.0525 50.1125 67.4245 50.0544Z" fill="#102048"/>
<path d="M60.4043 50.2645C60.4179 49.8796 60.5372 49.5136 60.75 49.1825C60.9588 48.8488 61.2909 48.5743 61.6719 48.4249C62.0569 48.2836 62.4664 48.2648 62.846 48.3226C63.0344 48.3549 63.2161 48.4141 63.3937 48.468C63.5632 48.55 63.7326 48.6214 63.8926 48.7129L63.8153 48.9188C63.6364 48.9053 63.4669 48.8717 63.2974 48.8488C63.128 48.8394 62.9599 48.8192 62.7972 48.8138C62.4704 48.8111 62.1586 48.8474 61.8726 48.9457C61.5892 49.0493 61.3465 49.2337 61.131 49.4638C60.9222 49.6979 60.7541 49.9967 60.6199 50.2995L60.4043 50.2645Z" fill="#102048"/>
<path d="M65.7581 47.9862C65.8394 47.7158 65.994 47.4843 66.2 47.2892C66.4034 47.0913 66.6718 46.9568 66.9524 46.8827C67.2358 46.8195 67.5313 46.8208 67.8011 46.8922C67.9367 46.9231 68.0628 46.9837 68.1902 47.0281C68.3082 47.0967 68.4261 47.1613 68.5346 47.238L68.4587 47.4022C68.2038 47.3618 67.9679 47.304 67.7333 47.2905C67.4988 47.2703 67.2751 47.2878 67.0582 47.3282C66.8372 47.3645 66.642 47.4722 66.4481 47.5919C66.257 47.7158 66.0807 47.8853 65.9221 48.0629L65.7581 47.9862Z" fill="#102048"/>
<path d="M52.7053 53.7567C52.5453 53.5117 52.3636 53.3018 52.1589 53.1242C51.9528 52.9479 51.7264 52.8039 51.4878 52.7124C51.2492 52.6209 51.0039 52.5805 50.7666 52.6155C50.5294 52.6545 50.3016 52.7783 50.0779 52.9667L49.8962 52.8429C50.0169 52.5388 50.284 52.2589 50.6378 52.1405C50.9889 52.018 51.3753 52.0624 51.6966 52.1916C52.0206 52.3222 52.2986 52.5361 52.51 52.7945C52.7215 53.0515 52.8734 53.361 52.9154 53.684L52.7053 53.7567Z" fill="#E28B6D"/>
<path d="M54.4824 130.262L57.442 129.819C58.4249 129.656 59.4118 129.518 60.3934 129.341L63.3448 128.85C64.3304 128.691 65.3146 128.526 66.3043 128.383L66.3531 128.597C65.3906 128.885 64.4158 129.114 63.4383 129.332C62.4581 129.539 61.4739 129.725 60.4856 129.89C59.4945 130.038 58.5035 130.191 57.5043 130.29C56.5065 130.392 55.5046 130.466 54.5 130.483L54.4824 130.262Z" fill="#1F3C88"/>
<path d="M95.3217 0C86.8051 0 79.9004 6.85199 79.9004 15.3036C79.9004 18.6792 81.004 21.7964 82.8694 24.3271V30.5992L87.0396 28.2098C89.4325 29.726 92.2727 30.6073 95.3231 30.6073C103.84 30.6073 110.744 23.7553 110.744 15.3036C110.743 6.85199 103.84 0 95.3217 0Z" fill="#818181"/>
<path d="M88.23 17.035C89.1929 17.035 89.9735 16.2604 89.9735 15.3049C89.9735 14.3493 89.1929 13.5747 88.23 13.5747C87.2671 13.5747 86.4866 14.3493 86.4866 15.3049C86.4866 16.2604 87.2671 17.035 88.23 17.035Z" fill="white"/>
<path d="M95.3218 17.035C96.2847 17.035 97.0653 16.2604 97.0653 15.3049C97.0653 14.3493 96.2847 13.5747 95.3218 13.5747C94.3589 13.5747 93.5784 14.3493 93.5784 15.3049C93.5784 16.2604 94.3589 17.035 95.3218 17.035Z" fill="white"/>
<path d="M102.414 17.035C103.377 17.035 104.157 16.2604 104.157 15.3049C104.157 14.3493 103.377 13.5747 102.414 13.5747C101.451 13.5747 100.67 14.3493 100.67 15.3049C100.67 16.2604 101.451 17.035 102.414 17.035Z" fill="white"/>
<path d="M244.87 50.6406L242.085 53.4269L227.901 49.7796C224.377 47.0579 222.218 42.2966 223.333 38.4475C224.767 33.4979 230.536 29.8707 234.389 32.0785C234.389 32.0785 231.681 33.9809 232.064 35.6397C234.821 32.5386 242.423 33.7064 246.098 37.8259C247.992 39.9476 247.794 44.9981 244.87 50.6406Z" fill="#102048"/>
<path d="M246.484 66.838L234.12 69.1547L231.098 54.6677L241.443 54.373C241.48 54.4228 246.484 66.838 246.484 66.838Z" fill="#E28B6D"/>
<path d="M232.949 60.9758C239.229 61.6122 242.671 54.6431 242.671 54.6431L242.72 51.0523L242.726 50.6998L242.809 44.4815L237.506 39.3906L227.686 43.8304C227.682 43.8371 227.687 43.8357 227.687 43.8357C227.392 45.0452 227.161 46.2749 227.004 47.4911C226.924 48.114 226.862 48.7383 226.822 49.3477C226.428 55.3172 228.912 60.5668 232.949 60.9758Z" fill="#F9B384"/>
<path d="M226.409 46.758C227.904 43.2049 231.17 41.3456 233.898 43.3354C237.847 46.2172 239.888 44.0054 240.289 44.3956C243.095 47.1213 242.729 50.7013 242.729 50.7013L244.526 49.6533L244.892 48.0308L244.924 40.5828L240.347 36.9153L235.328 35.9775L229.429 38.0575C228.451 39.2939 226.3 41.503 226.3 41.503C225.777 43.1296 226.409 46.758 226.409 46.758Z" fill="#102048"/>
<path d="M241 51.6486C242.057 49.231 245.031 47.8184 246.117 50.1674C247.204 52.5164 245.937 55.7614 241.594 55.3013L241 51.6486Z" fill="#F9B384"/>
<path d="M233.152 50.5407C233.117 51.0655 233.403 51.5137 233.792 51.5392C234.181 51.5648 234.525 51.1611 234.562 50.6349C234.597 50.1101 234.311 49.662 233.922 49.6364C233.533 49.6108 233.187 50.0159 233.152 50.5407Z" fill="#102048"/>
<path d="M228.656 50.0262C228.669 50.5349 228.983 50.94 229.358 50.9305C229.735 50.9225 230.031 50.5026 230.019 49.9953C230.006 49.4866 229.692 49.0816 229.315 49.091C228.94 49.0991 228.644 49.5176 228.656 50.0262Z" fill="#102048"/>
<path d="M236.098 49.9757C235.912 49.7012 235.693 49.4374 235.445 49.2436C235.191 49.0539 234.92 48.9166 234.622 48.8641C234.323 48.817 234.01 48.8372 233.689 48.8964C233.529 48.9314 233.369 48.9812 233.204 49.0202C233.041 49.0727 232.881 49.136 232.706 49.1804L232.594 48.992C232.734 48.8735 232.889 48.774 233.041 48.6636C233.208 48.5788 233.374 48.4887 233.555 48.4241C233.918 48.2989 234.323 48.2464 234.729 48.3164C235.131 48.3958 235.507 48.6071 235.773 48.8991C236.042 49.1884 236.225 49.5262 236.307 49.903L236.098 49.9757Z" fill="#102048"/>
<path d="M230.48 48.71C230.293 48.5634 230.088 48.4288 229.878 48.34C229.665 48.2566 229.454 48.1853 229.23 48.188C229.009 48.1853 228.787 48.2095 228.559 48.2701C228.33 48.3239 228.108 48.4221 227.865 48.5068L227.76 48.3589C227.854 48.2633 227.958 48.1786 228.061 48.0911C228.179 48.0252 228.292 47.9445 228.421 47.8893C228.673 47.7709 228.964 47.7171 229.255 47.7292C229.543 47.7521 229.832 47.8382 230.068 47.9969C230.307 48.1517 230.5 48.3535 230.628 48.6051L230.48 48.71Z" fill="#102048"/>
<path d="M242.709 51.6569C242.76 51.3891 242.865 51.1375 243.004 50.9006C243.14 50.6597 243.324 50.4404 243.568 50.2587C243.804 50.0851 244.166 49.9398 244.515 50.0582C244.856 50.1685 245.045 50.4417 245.149 50.6934L244.969 50.8212C244.768 50.6651 244.566 50.5548 244.399 50.5386C244.235 50.5198 244.07 50.5951 243.895 50.7149C243.542 50.9639 243.237 51.3595 242.909 51.7511L242.709 51.6569Z" fill="#E28B6D"/>
<path d="M203.159 95.4361L187.013 93.8311L180.081 101.048C179.183 101.884 179.836 102.701 180.676 102.62L189.639 100.059L199.598 101.114L203.159 95.4361Z" fill="#E28B6D"/>
<path d="M255.936 157.044C255.936 157.044 250.218 165.859 240.416 166.367L242.813 154.186L255.936 157.044Z" fill="#102048"/>
<path d="M231.833 67.728C224.466 73.1324 220.057 83.1312 213.99 86.6265C211.328 88.1602 195.664 92.9309 195.664 92.9309L196.526 100.593L222.606 90.2146L232.317 77.8991L231.833 67.728Z" fill="#102048"/>
<path d="M192.93 160.681C192.88 160.567 198.877 166.511 210.952 169.955L207.063 158.566L192.93 160.681Z" fill="#102048"/>
<path d="M199.107 157.697L209.049 162.21L202.838 172.079L193.834 168.9L199.107 157.697Z" fill="#F9B384"/>
<path d="M201.186 182.483L181.133 176.251C180.618 176.091 180.629 175.363 181.149 175.219L191.873 172.25L193.844 168.865L202.868 171.986C202.863 175.097 202.423 178.193 201.561 181.183L201.186 182.483Z" fill="#FC6B58"/>
<path d="M192.931 160.681L209.409 130.015C214.343 120.712 217.069 114.721 225.576 111.668C231.954 109.378 243.827 109.005 251.574 109.155L251.868 123.537L230.069 137.25L210.954 169.954C205.787 165.058 199.709 162.508 192.931 160.681Z" fill="#102048"/>
<path d="M277.154 132.727V180.061" stroke="#385867" stroke-width="4.99957" stroke-miterlimit="10"/>
<path d="M270.308 105.057C276.9 105.057 280.101 86.9292 288.646 89.5056C311.78 96.4814 294.79 157.571 248.245 130.163L270.308 105.057Z" fill="#8296A0"/>
<path d="M287.961 182.587C287.961 179.799 283.123 177.539 277.155 177.539C271.187 177.539 266.348 179.799 266.348 182.587H287.961Z" fill="#1F3C88"/>
<path d="M240.001 157.677L248.246 151.744L254.001 161.779L246.556 167.73L240.001 157.677Z" fill="#F9B384"/>
<path d="M262.069 168.623L246.179 182.353C245.785 182.693 245.186 182.315 245.329 181.816L248.408 171.14L246.535 167.703L253.937 161.707C256.605 163.34 259.033 165.331 261.149 167.626L262.069 168.623Z" fill="#FC6B58"/>
<path d="M274.892 108.396L237.942 109.222C236.708 103.796 234.653 99.1629 232.714 95.6448C231.73 93.8648 230.774 92.3688 229.964 91.1943L238.277 81.9475L240.176 79.8407L227.48 70.3208C231.881 63.9316 236.584 61.931 243.343 63.3854C265.851 68.2274 273.581 98.3544 274.892 108.396Z" fill="#708CD5"/>
<path d="M202.535 99.1093L190.01 96.2705L180.053 101.585C179.381 102.115 179.92 102.705 180.762 102.626H190.547L199.548 104.035L202.535 99.1093Z" fill="#F9B384"/>
<path d="M238.278 81.9458C237.549 85.4101 236.055 90.8482 232.714 95.6444C231.73 93.8645 230.774 92.3684 229.963 91.1939L238.278 81.9458Z" fill="#1F3C88"/>
<path d="M195.863 94.7109C194.568 98.2452 195.116 101.575 197.005 104.848L217.921 101.603C220.812 101.188 223.479 99.748 225.479 97.5241L230.854 91.5439L240.18 79.8377L227.481 70.3179C222.183 78.0094 217.612 88.2073 217.612 88.2073L195.863 94.7109Z" fill="#708CD5"/>
<path d="M268.988 127.229C263.909 131.159 249.802 130.744 242.943 130.279L255.936 157.045C245.389 159.114 240.416 166.368 240.416 166.368C240.416 166.368 208.174 132.727 216.79 118.539C226.665 102.276 274.891 108.396 274.891 108.396C275.768 112.512 275.219 122.407 268.988 127.229Z" fill="#1F3C88"/>
<path d="M251.866 130.676C250.349 130.742 248.832 130.727 247.318 130.692C245.802 130.662 244.289 130.57 242.776 130.492C241.265 130.396 239.754 130.278 238.245 130.144C236.738 130 235.232 129.847 233.729 129.638L233.75 129.42C235.263 129.481 236.773 129.57 238.283 129.656L242.811 129.937L247.338 130.22C248.847 130.307 250.356 130.389 251.866 130.458V130.676Z" fill="#708CD5"/>
<path d="M213.914 48.9158C215.234 46.0622 215.689 42.7868 215.011 39.48C213.315 31.2003 205.175 25.8736 196.832 27.5832C188.489 29.2927 183.1 37.3913 184.797 45.671C186.493 53.9507 194.633 59.2773 202.976 57.5678C205.963 56.9558 208.57 55.5208 210.61 53.5564L215.175 55.0601L213.916 48.9155L213.914 48.9158Z" fill="#FCEBB3"/>
<path d="M207.267 42.8279C208.202 42.5974 208.773 41.6586 208.544 40.7309C208.315 39.8032 207.371 39.238 206.436 39.4685C205.501 39.6989 204.93 40.6378 205.159 41.5654C205.388 42.4931 206.332 43.0583 207.267 42.8279Z" fill="white"/>
<path d="M200.253 44.2711C201.196 44.0779 201.805 43.1624 201.613 42.2263C201.421 41.2902 200.501 40.6879 199.558 40.8811C198.615 41.0743 198.005 41.9898 198.197 42.926C198.389 43.8621 199.309 44.4643 200.253 44.2711Z" fill="white"/>
<path d="M193.305 45.6949C194.248 45.5017 194.857 44.5862 194.666 43.6501C194.474 42.7139 193.554 42.1117 192.61 42.3049C191.667 42.4981 191.058 43.4137 191.25 44.3498C191.442 45.2859 192.362 45.8882 193.305 45.6949Z" fill="white"/>
<path d="M105.471 67.9984C105.553 67.4772 105.53 66.9451 105.404 66.4328C105.278 65.9206 105.052 65.4383 104.739 65.0138C104.426 64.5893 104.032 64.2311 103.579 63.9598C103.127 63.6885 102.625 63.5096 102.103 63.4332C102.007 63.4077 101.904 63.4191 101.816 63.4652C101.767 63.5157 101.732 63.5776 101.713 63.6452C101.694 63.7129 101.693 63.7841 101.709 63.8525C101.805 64.8689 102.221 65.8288 102.896 66.5946C103.571 67.3605 104.471 67.8929 105.468 68.1157" fill="#455A64"/>
<path d="M99.869 75.3881C100.878 77.4664 102.327 78.8661 104.132 78.9408C104.487 78.9408 104.761 78.7169 105.106 78.6956C105.305 78.7431 105.497 78.8159 105.678 78.9123C105.773 78.9535 105.876 78.9763 105.98 78.9798C107.834 78.8804 109.415 77.5765 110.481 75.3952C111.962 72.3363 111.504 69.0536 109.458 68.0553C109.188 67.9224 108.908 67.813 108.619 67.7285C108.288 67.6377 107.946 67.597 107.603 67.6077C106.805 67.6609 106.019 67.8395 105.276 68.137L105.177 68.1726C103.514 67.4372 102.185 67.4336 100.913 68.0553C98.8422 69.0359 98.3875 72.3185 99.869 75.3881Z" fill="#FF4343"/>
<path d="M99.908 72.2796C99.807 72.0896 99.7488 71.8798 99.7375 71.665C99.6749 71.1486 99.7371 70.6247 99.9187 70.1373C100.099 69.6485 100.393 69.2091 100.775 68.8548C100.926 68.7024 101.106 68.5816 101.304 68.4995C101.304 68.5208 101.112 68.6523 100.846 68.9294C100.496 69.2881 100.226 69.7166 100.054 70.187C99.8805 70.6558 99.8066 71.1555 99.837 71.6543C99.8618 72.0415 99.9293 72.2725 99.908 72.2796Z" fill="#FAFAFA"/>
<path d="M100.281 73.7328C100.245 73.7328 100.178 73.5978 100.135 73.4095C100.093 73.2212 100.089 73.0542 100.135 73.0542C100.182 73.0542 100.242 73.1892 100.285 73.3739C100.327 73.5587 100.32 73.7257 100.281 73.7328Z" fill="#FAFAFA"/>
<path d="M109.703 63C109.703 63.0249 109.319 63.1705 108.744 63.5151C108.406 63.7173 108.085 63.9467 107.784 64.2008C107.418 64.5122 107.079 64.8545 106.772 65.224C106.469 65.5972 106.201 65.9967 105.969 66.4177C105.78 66.7591 105.62 67.1156 105.489 67.4835C105.262 68.1159 105.198 68.5493 105.17 68.528C105.168 68.4287 105.179 68.3297 105.202 68.2331C105.202 68.1372 105.237 68.0235 105.269 67.8778C105.301 67.7322 105.337 67.5972 105.393 67.4373C105.513 67.0563 105.667 66.6866 105.852 66.3324C106.308 65.4616 106.936 64.6927 107.699 64.0729C108.01 63.8212 108.343 63.5977 108.694 63.405C108.84 63.3162 108.982 63.2558 109.102 63.1954C109.207 63.1459 109.313 63.1021 109.422 63.0639C109.512 63.0294 109.607 63.0078 109.703 63Z" fill="#263238"/>
<path d="M111.676 73L112.8 78.2954L111.163 80.4426L107 81.3588L110.679 77.9752C110.679 77.9752 110.106 73.6458 111.676 73Z" fill="#F9B384"/>
<path d="M111.676 73L112.8 78.2954L111.163 80.4426L107 81.3588L110.679 77.9752C110.679 77.9752 110.106 73.6458 111.676 73Z" fill="#F9B384"/>
<path d="M98 80.1782L99.5 78.4895L105.933 78.8783L108.552 78.3765C108.552 78.3765 107.431 74.8261 109.004 74C109.004 74 110.359 75.8364 110.686 78.4895C110.744 78.9644 108.333 81.3 108.333 81.3C107.714 81.6982 102.685 81.9027 102.685 81.9027L99.7388 83.6782L98 80.1782Z" fill="#F9B384"/>
<path d="M166.931 92.9154C166.884 92.6306 166.904 92.3351 166.99 92.0591C167.076 91.783 167.224 91.5364 167.42 91.3444C167.819 90.9656 168.322 90.7597 168.838 90.764C169.289 90.7436 169.734 90.8726 170.118 91.1354C170.338 91.2777 170.523 91.4787 170.659 91.7214C170.794 91.9641 170.876 92.2414 170.896 92.53C170.917 92.8185 170.876 93.1098 170.777 93.3793C170.678 93.6488 170.524 93.8886 170.328 94.0785C169.898 94.5121 169.344 94.7494 168.776 94.743C168.297 94.7659 167.832 94.5778 167.479 94.2178C167.315 94.0556 167.183 93.8565 167.09 93.6327C166.998 93.4088 166.947 93.165 166.941 92.9161" fill="#9CA8FF"/>
<path d="M162.764 94.2233C161.094 94.5225 159.429 92.6941 159.02 91.5036C158.991 91.444 158.976 91.3782 158.978 91.3119C158.979 91.2455 158.997 91.1806 159.03 91.1227C159.084 91.0756 159.148 91.0427 159.218 91.027C159.288 91.0113 159.361 91.0132 159.429 91.0327C160.257 91.1436 161.027 91.5133 161.628 92.0875C162.228 92.6617 162.626 93.4102 162.764 94.2233Z" fill="#455A64"/>
<path d="M160.917 92.8822C160.863 92.6666 160.877 92.4441 160.958 92.2376C161.039 92.0311 161.183 91.8483 161.376 91.708C161.769 91.4294 162.269 91.2827 162.785 91.2942C163.237 91.2889 163.685 91.3957 164.074 91.6018C164.294 91.714 164.48 91.8686 164.618 92.0529C164.756 92.2372 164.842 92.4459 164.868 92.6618C164.894 92.8777 164.86 93.0946 164.769 93.2946C164.677 93.4945 164.531 93.6719 164.342 93.8119C163.92 94.1326 163.368 94.3013 162.797 94.2837C162.319 94.2914 161.852 94.1416 161.491 93.8652C161.323 93.7399 161.186 93.5867 161.089 93.4153C160.992 93.2439 160.937 93.058 160.928 92.8693" fill="#9CA8FF"/>
<path d="M169.822 93.8124C169.832 92.8356 170.527 91.6471 171.122 90.8588C171.722 90.0647 172.565 89.4679 173.535 89.1493C173.567 89.1295 173.603 89.1179 173.64 89.1157C173.677 89.1134 173.715 89.1205 173.748 89.1364C173.782 89.1522 173.811 89.1762 173.832 89.2059C173.853 89.2356 173.866 89.2701 173.869 89.3058C174.081 89.8763 174.133 90.4891 174.019 91.0826C173.904 91.676 173.628 92.2291 173.218 92.6861C172.808 93.1431 172.279 93.4879 171.683 93.6856C171.087 93.8834 170.446 93.9273 169.825 93.8127" fill="#455A64"/>
<path d="M175.618 92.2976C175.962 91.9122 176.268 91.4965 176.533 91.056C176.796 90.6113 176.929 90.1043 176.916 89.5902C176.918 89.5518 176.912 89.5134 176.897 89.4777C176.882 89.442 176.859 89.4099 176.83 89.3836C176.797 89.3657 176.759 89.3549 176.721 89.3519C176.683 89.349 176.644 89.3539 176.608 89.3664C175.622 89.5809 174.732 90.0907 174.064 90.8238C173.395 91.5569 172.982 92.4762 172.882 93.452L172.834 93.7018C173.668 94.1767 174.657 94.3199 175.594 94.101C176.353 93.9713 177.077 93.6949 177.722 93.2883C178.373 92.8755 178.837 92.2382 179.022 91.5047C178.428 91.3858 177.815 91.3953 177.227 91.5323C176.638 91.6694 176.089 91.9307 175.618 92.2976Z" fill="#455A64"/>
<path d="M165.684 90.6491C164.754 89.9048 163.445 89.4826 162.152 89.2284C162.083 89.7322 162.146 90.2457 162.336 90.7388C162.526 91.232 162.841 91.695 163.261 92.1009C163.681 92.5067 164.198 92.8474 164.782 93.1029C165.366 93.3584 166.006 93.5237 166.664 93.5891L166.738 93.4811C167.154 92.5172 166.629 91.3947 165.684 90.6491Z" fill="#455A64"/>
<path d="M159.85 92.9958C159.85 92.9958 161.242 100.397 164.921 103.265C169.727 107.01 177.688 103.136 178.47 101.431C179.253 99.7259 180.937 92.6868 180.937 92.6868L159.85 92.9958Z" fill="#E0E0E0"/>
<path d="M66.1609 56.4522C66.0494 56.2867 65.9931 56.0875 66.0007 55.8853C66.0083 55.6831 66.0794 55.4891 66.203 55.3334C66.3267 55.1776 66.4959 55.0686 66.6847 55.0234C66.8735 54.9781 67.0713 54.999 67.2475 55.0828C67.469 55.2059 67.6551 55.3884 67.7867 55.6115C67.8688 55.7168 67.9294 55.8385 67.9646 55.9692C67.9997 56.0999 68.0089 56.2368 67.9913 56.3713C67.9596 56.4757 67.9077 56.5722 67.8387 56.6547C67.7697 56.7372 67.6852 56.804 67.5904 56.8509C67.4482 56.9319 67.2915 56.9811 67.1301 56.9956C66.9688 57.01 66.8063 56.9892 66.6531 56.9346C66.5005 56.8781 66.363 56.7844 66.2519 56.6613C66.1409 56.5382 66.0594 56.3893 66.0143 56.2269" fill="#EB996E"/>
<path d="M68.2667 55.4933C68.3299 55.5412 68.2759 55.7286 68.0525 55.948C67.7452 56.2247 67.3394 56.4006 66.8873 56.4532C66.4352 56.5058 65.9576 56.4327 65.5161 56.2431C65.1862 56.0877 65.0314 55.9246 65.0627 55.8672C65.1239 55.7373 65.8846 56.0343 66.7448 55.9381C67.605 55.8418 68.1345 55.3914 68.2667 55.4933Z" fill="#263238"/>
<path d="M233.267 57.1686C233.33 57.2165 233.276 57.4039 233.052 57.6233C232.745 57.9 232.339 58.0759 231.887 58.1285C231.435 58.1811 230.958 58.1079 230.516 57.9184C230.186 57.763 230.031 57.5999 230.063 57.5425C230.124 57.4126 230.885 57.7096 231.745 57.6134C232.605 57.5171 233.135 57.0667 233.267 57.1686Z" fill="#263238"/>
</svg>
