<svg width="24" height="24" viewBox="0 0 24 24" fill="none" xmlns="http://www.w3.org/2000/svg">
<path d="M19.7967 10.4174C17.8877 12.3257 15.5802 12.5842 13.8789 11.5355L13.8759 11.5384L3.26906 21.7913C2.97124 22.0792 2.49643 22.0711 2.20855 21.7733C1.92067 21.4755 1.92873 21.0007 2.22655 20.7128L10.6967 12.5253L9.67594 11.5306L8.20069 13.018C7.80448 13.4174 7.15682 13.4115 6.76796 13.0049L3.81144 9.91319C2.74714 8.80024 2.15151 7.32067 2.14783 5.78074L2.14173 3.22861C2.14067 2.78421 2.67654 2.55937 2.99289 2.87148L9.01727 8.81513C9.05866 8.84184 9.09802 8.87304 9.13467 8.90875L11.7757 11.4823L12.7548 10.5359C11.3794 8.81031 11.5086 6.27196 13.5791 4.20223C15.8042 1.97794 19.5622 1.2704 21.1458 2.85346C22.7295 4.43651 22.0218 8.19314 19.7967 10.4174ZM20.7377 21.7942L13 14.6L14.0271 13.5L21.7648 20.6942C22.0657 20.9805 22.0797 21.4588 21.7961 21.7626C21.5125 22.0664 21.0386 22.0805 20.7377 21.7942Z" fill="#192435"/>
</svg>
