<svg width="24" height="25" viewBox="0 0 24 25" fill="none" xmlns="http://www.w3.org/2000/svg">
<path d="M2 12C2 6.47715 6.47715 2 12 2C17.5228 2 22 6.47715 22 12C22 17.5228 17.5228 22 12 22C6.47715 22 2 17.5228 2 12ZM12 3.46341C7.28537 3.46341 3.46341 7.28537 3.46341 12C3.46341 16.7146 7.28537 20.5366 12 20.5366C16.7146 20.5366 20.5366 16.7146 20.5366 12C20.5366 7.28537 16.7146 3.46341 12 3.46341ZM11.2772 18C11.2772 18.4142 11.613 18.75 12.0272 18.75C12.4414 18.75 12.7772 18.4142 12.7772 18V16.9204C14.2047 16.6202 15.3501 15.5739 15.3501 14.123C15.3501 13.7077 15.2662 13.323 15.0651 12.9635C14.8699 12.6143 14.5905 12.3366 14.2757 12.0913C13.6923 11.6366 13.1622 11.4691 12.5772 11.2842C12.4907 11.2568 12.403 11.2291 12.3137 11.2C12.1477 11.1459 11.9777 11.103 11.8354 11.0671L11.7592 11.0478C11.5926 11.0052 11.4552 10.9669 11.3232 10.9158C11.1717 10.8571 10.986 10.7606 10.8239 10.6684C10.7461 10.6241 10.6797 10.5842 10.6331 10.5556L10.5924 10.5304C10.3969 10.3739 10.2981 10.2478 10.2427 10.1404C10.1871 10.0326 10.1501 9.89531 10.1501 9.67833C10.1501 9.0905 10.7881 8.3429 12.0113 8.29529C12.0212 8.29514 12.0312 8.2948 12.041 8.29427C12.0667 8.29351 12.0926 8.29307 12.1188 8.29293C12.8133 8.32684 13.2371 8.50665 13.4942 8.67558C13.7548 8.84686 13.8888 9.03627 13.9636 9.1563C14.1827 9.50783 14.6453 9.61518 14.9968 9.39609C15.3483 9.17699 15.4557 8.71441 15.2366 8.36289C15.0947 8.13528 14.8225 7.75359 14.318 7.42205C13.9216 7.16157 13.4091 6.94978 12.7501 6.8497L12.7502 6.00005C12.7502 5.58584 12.4145 5.25003 12.0003 5.25C11.586 5.24997 11.2502 5.58574 11.2502 5.99995L11.2501 6.88717C9.83077 7.19296 8.6501 8.22235 8.6501 9.67833C8.6501 10.0792 8.72146 10.4634 8.9096 10.8281C9.09543 11.1883 9.36928 11.4792 9.69741 11.7349L9.72383 11.7555L9.75219 11.7738L9.75309 11.7744L9.75492 11.7755L9.76067 11.7792L9.78022 11.7916C9.79669 11.802 9.81992 11.8165 9.84877 11.8342C9.90631 11.8695 9.98712 11.918 10.082 11.972C10.2652 12.0763 10.5264 12.2157 10.7812 12.3144C11.0013 12.3997 11.2114 12.456 11.3878 12.5011L11.4809 12.5247C11.6227 12.5607 11.7354 12.5892 11.849 12.6262C11.9519 12.6597 12.0464 12.69 12.134 12.7181C12.7237 12.9072 12.9934 12.9937 13.3537 13.2744C13.5805 13.4512 13.6939 13.5846 13.7559 13.6956C13.8122 13.7962 13.8501 13.9205 13.8501 14.123C13.8501 14.7352 13.2361 15.4711 12.0052 15.5072C11.9847 15.5078 11.9219 15.5083 11.8816 15.5084C11.187 15.4746 10.7631 15.2947 10.506 15.1258C10.2454 14.9545 10.1114 14.7651 10.0366 14.6451C9.81749 14.2935 9.35492 14.1862 9.00339 14.4053C8.65186 14.6244 8.54451 15.0869 8.7636 15.4385C8.90546 15.6661 9.17772 16.0478 9.6822 16.3793C10.084 16.6433 10.6051 16.8574 11.2772 16.9557V18ZM10.1584 11.1433L9.75219 11.7738C9.75214 11.7738 9.75198 11.7737 10.1584 11.1433Z" fill="#192435"/>
<path d="M17.25 10.75C17.25 10.0596 16.6904 9.5 16 9.5C15.3096 9.5 14.75 10.0596 14.75 10.75V15.75H9.75C9.05964 15.75 8.5 16.3096 8.5 17C8.5 17.6904 9.05964 18.25 9.75 18.25H14.75V23.25C14.75 23.9404 15.3096 24.5 16 24.5C16.6904 24.5 17.25 23.9404 17.25 23.25V18.25H22.25C22.9404 18.25 23.5 17.6904 23.5 17C23.5 16.3096 22.9404 15.75 22.25 15.75H17.25V10.75Z" fill="#192435" stroke="white" stroke-linecap="round"/>
</svg>
