<svg width="15" height="20" viewBox="0 0 15 20" fill="none" xmlns="http://www.w3.org/2000/svg">
<path d="M4.19263 4C4.19263 1.79086 5.98349 0 8.19263 0C10.4018 0 12.1926 1.79086 12.1926 4C12.1926 6.20914 10.4018 8 8.19263 8C5.98349 8 4.19263 6.20914 4.19263 4ZM8.19263 1.5C6.81191 1.5 5.69263 2.61929 5.69263 4C5.69263 5.38071 6.81191 6.5 8.19263 6.5C9.57334 6.5 10.6926 5.38071 10.6926 4C10.6926 2.61929 9.57334 1.5 8.19263 1.5Z" fill="#192435"/>
<path d="M8.19266 10.5C4.76975 10.5 1.94085 13.0485 1.50189 16.3512C1.49774 16.3824 1.50471 16.4085 1.53236 16.4373C1.56425 16.4705 1.6204 16.5 1.69266 16.5H8.44263C8.85684 16.5 9.19263 16.8358 9.19263 17.25C9.19263 17.6642 8.85684 18 8.44263 18H1.69266C0.757061 18 -0.126426 17.2174 0.0149658 16.1536C0.551697 12.1153 4.00777 9 8.19266 9C10.7548 9 11.6796 8.66769 13.1926 10.5L11.6926 10C10.5332 9.06192 9.79995 10.5 8.19266 10.5Z" fill="#192435"/>
<path d="M14.3756 13.4524C14.374 13.7708 14.1145 14.0276 13.7961 14.0259C13.4777 14.0243 13.2209 13.7648 13.2225 13.4464L13.2296 12.1011C13.2351 11.0397 12.3792 10.1747 11.3178 10.1692C10.2564 10.1637 9.39145 11.0196 9.3859 12.081L9.37887 13.4263C9.37721 13.7447 9.11773 14.0015 8.79931 13.9998C8.48089 13.9981 8.22411 13.7387 8.22577 13.4202L8.2328 12.075C8.24168 10.3767 9.62557 9.00722 11.3238 9.0161C13.022 9.02497 14.3915 10.4089 14.3827 12.1071L14.3756 13.4524ZM9.36883 15.3481C9.37049 15.0297 9.11371 14.7702 8.79529 14.7685C8.47687 14.7669 8.21739 15.0237 8.21573 15.3421L8.2087 16.6874C8.19983 18.3856 9.56933 19.7695 11.2676 19.7784C12.9658 19.7872 14.3497 18.4177 14.3586 16.7195L14.3656 15.3742C14.3673 15.0558 14.1105 14.7963 13.7921 14.7947C13.4736 14.793 13.2142 15.0498 13.2125 15.3682L13.2055 16.7135C13.1999 17.7749 12.335 18.6308 11.2736 18.6253C10.2122 18.6197 9.35625 17.7548 9.3618 16.6934L9.36883 15.3481ZM11.8429 12.286C11.8446 11.9676 11.5878 11.7081 11.2694 11.7065C10.951 11.7048 10.6915 11.9616 10.6898 12.28L10.6677 16.508C10.6661 16.8265 10.9229 17.0859 11.2413 17.0876C11.5597 17.0893 11.8192 16.8325 11.8208 16.5141L11.8429 12.286Z" fill="#192435"/>
</svg>
