<svg width="24" height="24" viewBox="0 0 24 24" fill="none" xmlns="http://www.w3.org/2000/svg">
<path d="M2.5 16.25C2.5 16.6642 2.83579 17 3.25 17C3.66421 17 4 16.6642 4 16.25L4 3.24999C4 3.11192 4.11193 2.99999 4.25 2.99999L15.25 2.99999C15.6642 2.99999 16 2.66421 16 2.24999C16 1.83578 15.6642 1.49999 15.25 1.49999H4.25C3.2835 1.49999 2.5 2.28349 2.5 3.24999V16.25ZM18.25 20.5H7.75C7.61193 20.5 7.5 20.3881 7.5 20.25L7.5 6.75C7.5 6.61193 7.61193 6.5 7.75 6.5L18.25 6.5C18.3881 6.5 18.5 6.61193 18.5 6.75V20.25C18.5 20.3881 18.3881 20.5 18.25 20.5ZM7.75 22H18.25C19.2165 22 20 21.2165 20 20.25V6.75C20 5.7835 19.2165 5 18.25 5L7.75 5C6.7835 5 6 5.7835 6 6.75L6 20.25C6 21.2165 6.7835 22 7.75 22Z" fill="#192435"/>
<path d="M9.75 12L16.25 12C16.6642 12 17 12.3358 17 12.75C17 13.1642 16.6642 13.5 16.25 13.5L9.75 13.5C9.33579 13.5 9 13.1642 9 12.75C9 12.3358 9.33579 12 9.75 12Z" fill="#192435"/>
<path d="M16.25 16.5C16.6642 16.5 17 16.1642 17 15.75C17 15.3358 16.6642 15 16.25 15L12.75 15C12.3358 15 12 15.3358 12 15.75C12 16.1642 12.3358 16.5 12.75 16.5L16.25 16.5Z" fill="#192435"/>
</svg>
