<svg width="24" height="24" viewBox="0 0 24 24" fill="none" xmlns="http://www.w3.org/2000/svg">
<path d="M8.00016 1.25C8.41437 1.25 8.75016 1.58579 8.75016 2V3H16.2502V2C16.2502 1.58579 16.5859 1.25 17.0002 1.25C17.4144 1.25 17.7502 1.58579 17.7502 2V3H18.2502C19.7689 3 21.0002 4.23122 21.0002 5.75V17.25C21.0002 18.7687 19.7691 20 18.2503 20H6.75016C5.23138 20 4.00016 18.7688 4.00016 17.25V5.75C4.00016 4.23122 5.23138 3 6.75016 3H7.25016V2C7.25016 1.58579 7.58595 1.25 8.00016 1.25ZM18.2503 18.5C18.9406 18.5 19.5002 17.9404 19.5002 17.25V9H5.50016V17.25C5.50016 17.9404 6.0598 18.5 6.75016 18.5H18.2503ZM5.50016 5.75V7.5H19.5002V5.75C19.5002 5.05964 18.9405 4.5 18.2502 4.5H6.75016C6.0598 4.5 5.50016 5.05964 5.50016 5.75ZM14.0002 12C13.4479 12 13.0002 12.4477 13.0002 13V16C13.0002 16.5523 13.4479 17 14.0002 17H17.0002C17.5524 17 18.0002 16.5523 18.0002 16V13C18.0002 12.4477 17.5524 12 17.0002 12H14.0002ZM15.2502 23.0001C15.6644 23.0001 16.0002 22.6644 16.0002 22.2501C16.0002 21.8359 15.6644 21.5001 15.2502 21.5001H4.24907C3.28294 21.5001 2.5 20.717 2.5 19.7501V8.25C2.5 7.83579 2.16421 7.5 1.75 7.5C1.33579 7.5 1 7.83579 1 8.25V19.7501C1 21.5447 2.45378 23.0001 4.24907 23.0001H15.2502Z" fill="#192435"/>
</svg>
