<svg width="42" height="27" viewBox="0 0 42 27" fill="none" xmlns="http://www.w3.org/2000/svg">
<path fill-rule="evenodd" clip-rule="evenodd" d="M0.278906 0.27485L0 0.549701V2.94122V5.33274L0.239367 5.59676C0.443379 5.82181 0.533941 5.86078 0.852715 5.86078C1.15196 5.86078 1.27222 5.81599 1.45417 5.63678L1.68164 5.41277L1.70641 3.55519L1.73127 1.6976H3.4947C4.89874 1.6976 5.30644 1.67295 5.49519 1.57683C5.95309 1.34345 6.10509 0.906925 5.89025 0.442347C5.69633 0.0228772 5.54416 0 2.94902 0H0.557813L0.278906 0.27485ZM36.4309 0.112851C36.0364 0.328285 35.8879 0.921557 36.1398 1.27587C36.4133 1.66074 36.62 1.6976 38.5053 1.6976H40.2687L40.2936 3.55519L40.3184 5.41277L40.5458 5.63678C40.7278 5.81599 40.848 5.86078 41.1473 5.86078C41.4661 5.86078 41.5566 5.82181 41.7606 5.59676L42 5.33274V2.94122V0.549701L41.7211 0.27485L41.4422 0L39.0346 0.00282964C37.194 0.00509311 36.5808 0.0309614 36.4309 0.112851ZM3.68509 3.6315L3.44531 3.86779V13.5V23.1322L3.68509 23.3685C4.01961 23.6982 4.48498 23.6983 4.85904 23.3689L5.12695 23.133V13.5V3.86698L4.85904 3.6311C4.48498 3.30168 4.01961 3.30184 3.68509 3.6315ZM7.86868 3.6315L7.62891 3.86779V11.4286C7.62891 16.6927 7.65598 19.0479 7.71791 19.182C7.82488 19.4133 8.19648 19.6438 8.46185 19.6434C8.79769 19.6429 9.17044 19.3555 9.2692 19.0211C9.33327 18.804 9.35263 16.5382 9.33524 11.2905L9.31055 3.8669L9.04263 3.6311C8.66857 3.30168 8.20321 3.30184 7.86868 3.6315ZM12.0523 3.6315L11.8125 3.86779L11.8151 11.493C11.8171 17.3615 11.8407 19.147 11.9177 19.2432C12.0925 19.4619 12.4164 19.6437 12.6306 19.6434C12.9826 19.6429 13.3517 19.3619 13.4476 19.0214C13.5055 18.8163 13.5344 16.3011 13.5347 11.4562C13.5352 3.64476 13.5447 3.82333 13.1154 3.52706C12.8011 3.31009 12.3316 3.35625 12.0523 3.6315ZM16.2359 3.6315L15.9961 3.86779V11.5014V19.1351L16.1942 19.3457C16.6839 19.8664 17.475 19.6533 17.6388 18.9566C17.747 18.4966 17.7419 4.41022 17.6334 4.02534C17.4537 3.38769 16.6991 3.17501 16.2359 3.6315ZM20.4195 3.6315L20.1797 3.86779V11.517V19.166L20.3777 19.3612C20.7519 19.7299 21.2669 19.7235 21.6222 19.3457L21.8203 19.1351V11.5014V3.86779L21.5805 3.6315C21.3924 3.44622 21.2673 3.39521 21 3.39521C20.7327 3.39521 20.6076 3.44622 20.4195 3.6315ZM24.6643 3.56052C24.5469 3.65155 24.413 3.86068 24.3666 4.02534C24.2581 4.41022 24.253 18.4966 24.3612 18.9566C24.525 19.6533 25.3161 19.8664 25.8058 19.3457L26.0039 19.1351V11.5014V3.86779L25.7641 3.6315C25.4664 3.33806 24.9908 3.30742 24.6643 3.56052ZM28.8846 3.52706C28.4553 3.82333 28.4648 3.64476 28.4653 11.4562C28.4656 16.3011 28.4945 18.8163 28.5524 19.0214C28.7492 19.72 29.7415 19.8549 30.0706 19.2278C30.1694 19.0397 30.1875 17.829 30.1875 11.4364V3.86779L29.9477 3.6315C29.6684 3.35625 29.1989 3.31009 28.8846 3.52706ZM32.9574 3.6311L32.6895 3.8669L32.6648 11.2905C32.6474 16.5382 32.6667 18.804 32.7308 19.0211C32.8296 19.3555 33.2023 19.6429 33.5381 19.6434C33.8035 19.6438 34.1751 19.4133 34.2821 19.182C34.344 19.0479 34.3711 16.6927 34.3711 11.4286V3.86779L34.1313 3.6315C33.7968 3.30184 33.3314 3.30168 32.9574 3.6311ZM37.141 3.6311L36.873 3.86698V13.5V23.133L37.141 23.3689C37.515 23.6983 37.9804 23.6982 38.3149 23.3685L38.5547 23.1322V13.5V3.86779L38.3149 3.6315C37.9804 3.30184 37.515 3.30168 37.141 3.6311ZM0.524016 21.1743C0.428777 21.2142 0.271852 21.3459 0.175383 21.4668C0.00525001 21.6799 0 21.7576 0 24.0684V26.4503L0.278906 26.7251L0.557813 27H2.94902C5.54416 27 5.69633 26.9771 5.89025 26.5577C6.10509 26.0931 5.95309 25.6565 5.49519 25.4232C5.30644 25.327 4.89874 25.3024 3.4947 25.3024H1.73127L1.70641 23.4448L1.68164 21.5872L1.47213 21.3809C1.244 21.1562 0.798328 21.0591 0.524016 21.1743ZM40.8105 21.1715C40.7203 21.21 40.5727 21.3222 40.4824 21.4209C40.3302 21.5875 40.3166 21.7333 40.2936 23.4514L40.2687 25.3024H38.5053C37.1013 25.3024 36.6936 25.327 36.5048 25.4232C36.0469 25.6565 35.8949 26.0931 36.1097 26.5577C36.3037 26.9771 36.4558 27 39.051 27H41.4422L41.7211 26.7251L42 26.4503V24.0588V21.6673L41.7744 21.4206C41.5335 21.1572 41.1042 21.0463 40.8105 21.1715ZM8.02479 21.8839C7.74244 22.0565 7.62891 22.3096 7.62891 22.766C7.62891 23.8094 9.13229 23.9168 9.30899 22.8861C9.44672 22.083 8.67907 21.4839 8.02479 21.8839ZM12.2637 21.8394C11.9419 22.0137 11.8162 22.2549 11.8143 22.7016C11.8127 23.071 11.8465 23.1658 12.0523 23.3685C12.505 23.8146 13.2446 23.6212 13.4518 23.0025C13.71 22.2314 12.9369 21.4745 12.2637 21.8394ZM16.4473 21.8394C16.1255 22.0137 15.9998 22.2549 15.9979 22.7016C15.9963 23.071 16.0301 23.1658 16.2359 23.3685C16.694 23.82 17.4541 23.6129 17.629 22.9888C17.6729 22.8319 17.6958 22.6608 17.6797 22.6085C17.6635 22.5562 17.6279 22.4123 17.6004 22.2887C17.5092 21.8792 16.8486 21.6218 16.4473 21.8394ZM20.5714 21.8715C20.2685 22.0335 20.1797 22.2251 20.1797 22.7165C20.1797 23.0682 20.2166 23.1686 20.4195 23.3685C20.6076 23.5538 20.7327 23.6048 21 23.6048C21.2673 23.6048 21.3924 23.5538 21.5805 23.3685C21.7834 23.1686 21.8203 23.0682 21.8203 22.7165C21.8203 22.2174 21.73 22.0297 21.4118 21.8676C21.1139 21.7158 20.8605 21.717 20.5714 21.8715ZM24.7141 21.905C24.5564 21.9997 24.4295 22.1546 24.3996 22.2887C24.3721 22.4123 24.3365 22.5562 24.3203 22.6085C24.3042 22.6608 24.3271 22.8319 24.371 22.9888C24.5459 23.6129 25.306 23.82 25.7641 23.3685C25.9699 23.1658 26.0037 23.071 26.0021 22.7016C25.9987 21.8996 25.3701 21.5108 24.7141 21.905ZM28.8997 21.9038C28.5647 22.1051 28.4098 22.5892 28.5482 23.0025C28.7554 23.6212 29.495 23.8146 29.9477 23.3685C30.1535 23.1658 30.1873 23.071 30.1857 22.7016C30.1822 21.9007 29.5537 21.5108 28.8997 21.9038ZM33.0876 21.9012C32.5821 22.205 32.5302 23.0202 32.9921 23.4032C33.5665 23.8795 34.3711 23.5077 34.3711 22.766C34.3711 22.2988 34.2347 22.0063 33.949 21.8607C33.6428 21.7047 33.3953 21.7163 33.0876 21.9012Z" fill="black"/>
</svg>
