<svg width="24" height="24" viewBox="0 0 24 24" fill="none" xmlns="http://www.w3.org/2000/svg">
<g clip-path="url(#clip0_7378_2209)">
<path d="M8.06347 3.65848H5.78024C5.50372 3.65848 5.25435 3.49184 5.1485 3.23637C5.04266 2.98086 5.10121 2.68677 5.29667 2.4912L7.58 0.20788C7.77556 0.0123177 8.06979 -0.0459478 8.32517 0.0596614C8.58068 0.165505 8.74728 0.414833 8.74728 0.691394V2.97472C8.74723 3.3523 8.44114 3.65848 8.06347 3.65848Z" fill="white"/>
<path d="M18.2197 7.77787C17.8421 7.77787 17.5359 7.47168 17.5359 7.0941V1.37513L7.99993 1.3751C7.6223 1.3751 7.31616 1.06891 7.31616 0.691333C7.31616 0.313755 7.6223 0.00756836 7.99993 0.00756836L17.6311 0.00760231C18.3326 0.00760231 18.9033 0.578351 18.9033 1.27983V7.09401C18.9034 7.47163 18.5972 7.77787 18.2197 7.77787Z" fill="white"/>
<path d="M5.7802 7.77785C5.40258 7.77785 5.09644 7.47166 5.09644 7.09408V2.97462C5.09644 2.79331 5.16848 2.6194 5.29673 2.49111L7.57996 0.207783C7.84696 -0.0591698 8.27994 -0.0591698 8.54699 0.207783C8.81399 0.474782 8.81399 0.907766 8.54699 1.17481L6.46396 3.25784V7.09404C6.46396 7.47161 6.15787 7.77785 5.7802 7.77785Z" fill="white"/>
<path d="M18 23.9924H5.7802C5.40258 23.9924 5.09644 23.6862 5.09644 23.3086V16.4025C5.09644 16.0249 5.40258 15.7188 5.7802 15.7188H18.2196C18.5972 15.7188 18.9034 16.0249 18.9034 16.4025C18.9034 16.7801 18.5972 17.0863 18.2196 17.0863H6.46396V22.6248H18C18.3775 22.6248 18.6837 22.931 18.6837 23.3085C18.6837 23.6862 18.3775 23.9924 18 23.9924Z" fill="white"/>
<path d="M21.8391 19.7932H18.2198C17.8422 19.7932 17.536 19.487 17.536 19.1094V17.0863H6.46405V19.1094C6.46405 19.487 6.15791 19.7932 5.78029 19.7932H2.16098C0.969373 19.7932 0 18.8237 0 17.6322V8.95493C0 7.76341 0.969373 6.79395 2.16098 6.79395H21.8391C23.0306 6.79395 24 7.76341 24 8.95493V17.6322C24 18.8237 23.0305 19.7932 21.8391 19.7932ZM18.9035 18.4257H21.839C22.2765 18.4257 22.6325 18.0698 22.6325 17.6322V8.95493C22.6325 8.51744 22.2766 8.16147 21.839 8.16147H2.16093C1.72345 8.16147 1.36748 8.51739 1.36748 8.95493V17.6322C1.36748 18.0697 1.7234 18.4257 2.16093 18.4257H5.09647V16.4026C5.09647 16.025 5.40261 15.7188 5.78024 15.7188H18.2197C18.5972 15.7188 18.9034 16.025 18.9034 16.4026V18.4257H18.9035Z" fill="white"/>
<path d="M21.8391 19.7933H18.2198C17.8422 19.7933 17.536 19.4871 17.536 19.1095V17.0864H6.46405V19.1095C6.46405 19.4871 6.15791 19.7933 5.78029 19.7933H2.16098C0.969373 19.7933 0 18.8238 0 17.6323V13.2936C0 12.9161 0.30614 12.6099 0.683764 12.6099H23.3162C23.6938 12.6099 24 12.9161 24 13.2936V17.6323C24 18.8238 23.0305 19.7933 21.8391 19.7933ZM18.9035 18.4257H21.839C22.2765 18.4257 22.6325 18.0698 22.6325 17.6323V13.9774H1.36753V17.6323C1.36753 18.0698 1.72345 18.4257 2.16098 18.4257H5.09652V16.4026C5.09652 16.025 5.40266 15.7188 5.78029 15.7188H18.2197C18.5973 15.7188 18.9035 16.025 18.9035 16.4026V18.4257Z" fill="white"/>
<rect x="17.2" y="16" width="1.6" height="8" rx="0.8" fill="white"/>
<path d="M19 11H20" stroke="white" stroke-linecap="round"/>
<path d="M8 21L16 21" stroke="white" stroke-linecap="round"/>
<path d="M8 19L16 19" stroke="white" stroke-linecap="round"/>
</g>
<defs>
<clipPath id="clip0_7378_2209">
<rect width="24" height="24" fill="white"/>
</clipPath>
</defs>
</svg>
