<svg width="24" height="24" viewBox="0 0 24 24" fill="none" xmlns="http://www.w3.org/2000/svg">
<path d="M4.00964 4.74805C4.00964 4.33383 4.34543 3.99805 4.75964 3.99805C7.57273 3.99805 10.3994 4.79771 12.0261 5.72115C13.6461 4.79753 16.4595 3.99805 19.2594 3.99805C19.6736 3.99805 20.0094 4.33383 20.0094 4.74805V6.00197C21.1096 6.00704 22 6.90052 22 8.00195V18.002C22 19.1065 21.1046 20.002 20 20.002H4C2.89543 20.002 2 19.1065 2 18.002V8.00195C2 6.89738 2.89543 6.00195 4 6.00195H4.00964V4.74805ZM18.5094 17.0888V5.5186C16.183 5.64459 13.9892 6.32984 12.7771 7.0194V17.3997C13.5151 17.2197 14.4685 17.011 15.2436 16.9209C16.7319 16.7478 18.0477 16.9874 18.5094 17.0888ZM11.277 7.02044C10.0576 6.32994 7.85011 5.64388 5.50964 5.51839V17.1004C5.94781 17.0125 7.35475 16.7703 8.91438 16.9208C9.65277 16.9921 10.5462 17.1758 11.277 17.3479V7.02044Z" fill="#192435"/>
</svg>
