<svg width="24" height="24" viewBox="0 0 24 24" fill="none" xmlns="http://www.w3.org/2000/svg">
<path d="M8.75 9.14258C8.33579 9.14258 8 9.47836 8 9.89258C8 10.3068 8.33579 10.6426 8.75 10.6426H15.25C15.6642 10.6426 16 10.3068 16 9.89258C16 9.47836 15.6642 9.14258 15.25 9.14258H8.75Z" fill="#192435"/>
<path d="M8 12.8926C8 12.4784 8.33579 12.1426 8.75 12.1426H15.25C15.6642 12.1426 16 12.4784 16 12.8926C16 13.3068 15.6642 13.6426 15.25 13.6426H8.75C8.33579 13.6426 8 13.3068 8 12.8926Z" fill="#192435"/>
<path d="M8.75 15.1426C8.33579 15.1426 8 15.4784 8 15.8926C8 16.3068 8.33579 16.6426 8.75 16.6426H11.25C11.6642 16.6426 12 16.3068 12 15.8926C12 15.4784 11.6642 15.1426 11.25 15.1426H8.75Z" fill="#192435"/>
<path d="M11.9998 1C10.8075 1 9.82841 1.8787 9.72343 3H7C5.34315 3 4 4.34315 4 6V19C4 20.6569 5.34315 22 7 22H17C18.6569 22 20 20.6569 20 19V6C20 4.34315 18.6569 3 17 3H14.2762C14.1712 1.8787 13.1921 1 11.9998 1ZM7.99658 4.5V5.9961C7.99658 6.54838 8.4443 6.996 8.99658 6.996H15.0091C15.5614 6.996 16.009 6.54828 16.009 5.996V4.5H17C17.8284 4.5 18.5 5.17157 18.5 6V19C18.5 19.8284 17.8284 20.5 17 20.5H7C6.17157 20.5 5.5 19.8284 5.5 19V6C5.5 5.17157 6.17157 4.5 7 4.5H7.99658Z" fill="#192435"/>
</svg>
