<svg width="24" height="24" viewBox="0 0 24 24" fill="none" xmlns="http://www.w3.org/2000/svg">
<path d="M10.5 1C10.2239 1 10 1.22386 10 1.5V2.5C10 2.77614 10.2239 3 10.5 3H13.5C13.7761 3 14 2.77614 14 2.5V1.5C14 1.22386 13.7761 1 13.5 1H10.5ZM11.9912 8.03564C12.4054 8.03564 12.7412 8.37143 12.7412 8.78564V12.6837L15.7747 15.7171C16.0676 16.01 16.0676 16.4849 15.7747 16.7778C15.4818 17.0707 15.0069 17.0707 14.714 16.7778L11.5195 13.5833C11.3413 13.4051 11.2412 13.1635 11.2412 12.9115V8.78564C11.2412 8.37143 11.577 8.03564 11.9912 8.03564ZM18.8308 7.13975C17.1803 5.21758 14.7323 4 12 4C7.02944 4 3 8.02944 3 13C3 17.9706 7.02944 22 12 22C16.9706 22 21 17.9706 21 13C21 11.4861 20.6262 10.0595 19.9659 8.80743L21.211 7.69629C21.417 7.51242 21.435 7.19635 21.2511 6.99032L20.5853 6.24422C20.4014 6.03819 20.0853 6.02022 19.8793 6.20408L18.8308 7.13975ZM4.5 13C4.5 8.85786 7.85786 5.5 12 5.5C16.1421 5.5 19.5 8.85786 19.5 13C19.5 17.1421 16.1421 20.5 12 20.5C7.85786 20.5 4.5 17.1421 4.5 13Z" fill="#192435"/>
</svg>
